<svg xmlns="http://www.w3.org/2000/svg" viewBox="0 0 64 64">
  <g id="_29-Up" data-name="29-Up">
    <polygon points="63 25 60 28 56 24 34 46 22 34 1 57 1 51 22 28 34 40 55.97 17.97 63 25" style="fill:#ff6d04"/>
    <polygon points="51.03 13.03 48.53 15.53 43 10 45 7 51.03 13.03" style="fill:#fd9c04"/>
    <polygon points="48.53 15.53 51.03 13.03 45 7 63 7 63 25 55.97 17.97 34 40 22 28 1 51 1 40 22 18 34.08 29.97 48.53 15.53" style="fill:#fab503"/>
    <polygon points="22 28 22 34 34 46 34 40 22 28" style="fill:#d65106"/>
    <polygon points="1 51 1 57 22 34 22 28 1 51" style="fill:#fa5f07"/>
    <polygon points="55.97 17.97 34 40 34 46 56 24 56 18 55.97 17.97" style="fill:#ff6d04"/>
    <polygon points="56 18 56 24 60 28 63 25 56 18" style="fill:#fa5f07"/>
    <path d="M51.03,13.03,45,7l-.8,1.2,3.093,3.093a1,1,0,0,1,0,1.414L46.5,13.5l2.03,2.03Z" style="fill:#ed9204"/>
    <polygon points="22 18 22 28 34 40 34 29.891 22 18" style="fill:#fd9c04"/>
    <path d="M45.334,23.377,57,11a2.584,2.584,0,0,0,.373-4H45l6.03,6.03-2.5,2.5-6.666,6.661a2.009,2.009,0,0,0,3.47,1.186Z" style="fill:#ffdb02"/>
  </g>
</svg>
