<svg width="800px" height="800px" viewBox="0 0 36 36" version="1.1" xmlns="http://www.w3.org/2000/svg" xmlns:xlink="http://www.w3.org/1999/xlink">
    <title>plus</title>
    <defs>
        <linearGradient id="plusGradient" x1="0%" y1="100%" x2="100%" y2="0%">
            <stop offset="0%" style="stop-color:#f8d8ba;stop-opacity:1" />
            <stop offset="50%" style="stop-color:#F59033;stop-opacity:1" />
            <stop offset="100%" style="stop-color:rgb(255, 245, 241);stop-opacity:1" />
        </linearGradient>
    </defs>
    <g id="Page-1" stroke="none" stroke-width="1" fill="url(#plusGradient)" fill-rule="evenodd">
        <path d="M28,16 L20,16 L20,8 C20,5.79 18.209,4 16,4 C13.791,4 12,5.79 12,8 L12,16 L4,16 C1.791,16 0,17.79 0,20 C0,22.21 1.791,24 4,24 L12,24 L12,32 C12,34.21 13.791,36 16,36 C18.209,36 20,34.21 20,32 L20,24 L28,24 C30.209,24 32,22.21 32,20 C32,17.79 30.209,16 28,16" id="plus"></path>
    </g>
</svg>
